<svg width="20" height="21" viewBox="0 0 20 21" fill="none" xmlns="http://www.w3.org/2000/svg">
<g clip-path="url(#clip0_1524_3977)">
<path fill-rule="evenodd" clip-rule="evenodd" d="M17.045 3.4544C18.9312 5.34065 19.97 7.84815 19.97 10.515C19.97 13.1819 18.9312 15.6894 17.045 17.5757C15.1594 19.4613 12.6519 20.5 9.985 20.5C7.3175 20.5 4.81063 19.4613 2.92438 17.5757C1.03813 15.6894 0 13.1819 0 10.515C0 7.84815 1.03813 5.34065 2.92438 3.4544C4.81063 1.56878 7.3175 0.530029 9.985 0.530029C12.6519 0.530029 15.1594 1.56878 17.045 3.4544ZM16.1625 16.6932C17.3925 15.4632 18.21 13.9313 18.5475 12.2644C18.2844 12.6519 18.0331 12.795 17.8775 11.9294C17.7175 10.5175 16.4206 11.4194 15.605 10.9175C14.7475 11.4963 12.8188 9.79315 13.1462 11.7138C13.6519 12.58 15.8763 10.5544 14.7675 12.3875C14.06 13.6669 12.1813 16.5013 12.4256 17.97C12.4563 20.11 10.2388 18.4163 9.47437 17.7063C8.96063 16.2844 9.29937 13.7988 7.955 13.1025C6.49625 13.0394 5.24438 12.9063 4.67875 11.2757C4.33875 10.1088 5.04125 8.3719 6.29125 8.10378C8.12187 6.95378 8.775 9.45065 10.4919 9.4969C11.025 8.9394 12.4775 8.7619 12.5981 8.13628C11.4719 7.93815 14.0269 7.19003 12.49 6.76378C11.6425 6.86378 11.0963 7.64315 11.5469 8.30378C9.90438 8.6869 9.85125 5.9269 8.2725 6.79753C8.2325 8.17378 5.69375 7.24315 7.39438 6.9644C7.97813 6.70878 6.44125 5.9694 7.27188 6.10378C7.67938 6.0819 9.05313 5.60065 8.68125 5.2769C9.44563 4.80253 10.0881 6.41378 10.8369 5.24003C11.3769 4.33815 10.61 4.17128 9.93312 4.62878C9.55125 4.20128 10.6069 3.27753 11.5387 2.87878C11.8488 2.74565 12.1456 2.67315 12.3719 2.69378C12.8413 3.23565 13.7087 3.3294 13.7544 2.62878C12.5925 2.0719 11.3112 1.77815 9.985 1.77815C8.08125 1.77815 6.27 2.38315 4.77188 3.5019C5.17438 3.68628 5.40313 3.91628 5.015 4.21003C4.71375 5.10815 3.49125 6.31378 2.41688 6.14253C1.85938 7.1044 1.4925 8.16315 1.33563 9.27315C2.235 9.57065 2.44187 10.16 2.24875 10.3569C1.79063 10.7563 1.50875 11.3225 1.36375 11.9425C1.65688 13.7338 2.49813 15.3844 3.80687 16.6932C5.4575 18.3432 7.65125 19.2519 9.985 19.2519C12.3187 19.2519 14.5125 18.3432 16.1625 16.6932Z" fill="#00F0FF"/>
</g>
<defs>
<clipPath id="clip0_1524_3977">
<rect width="20" height="20" fill="white" transform="translate(0 0.5)"/>
</clipPath>
</defs>
</svg>
