<svg version="1.2" xmlns="http://www.w3.org/2000/svg" viewBox="0 0 58 15" width="58" height="15">
	<style>
		.s0 { fill: #000000 } 
	</style>
	<g id="PS5_x5F_PRO_x5F_ENHANCED_x5F_EN_x5F_1L_x5F_RGB">
		<g>
			<path class="s0" d="m36.69 5.35h1.94v0.53h-1.28v0.78h1.17v0.53h-1.17v0.85h1.32v0.53h-1.98v-3.21z"/>
			<path class="s0" d="m39.75 6.19v0.32c0.12-0.24 0.41-0.37 0.72-0.37 0.54 0 0.88 0.34 0.88 0.86v1.57h-0.64v-1.33c0-0.39-0.09-0.62-0.44-0.62-0.25 0-0.51 0.18-0.51 0.66v1.29h-0.64v-2.38z"/>
			<path class="s0" d="m42.56 5.26v1.25c0.13-0.24 0.4-0.37 0.71-0.37 0.54 0 0.88 0.34 0.88 0.86v1.57h-0.64v-1.33c0-0.39-0.09-0.62-0.44-0.62-0.25 0-0.51 0.18-0.51 0.66v1.29h-0.64v-3.31z"/>
			<path class="s0" d="m46.08 7.02c0-0.25-0.16-0.4-0.53-0.4-0.17 0-0.4 0.04-0.61 0.12l-0.12-0.46c0.22-0.08 0.54-0.14 0.77-0.14 0.79 0 1.12 0.33 1.12 0.91v0.98c0 0.18 0 0.4 0.04 0.54h-0.57c-0.02-0.08-0.04-0.22-0.05-0.29-0.12 0.21-0.37 0.35-0.69 0.35-0.42 0-0.86-0.19-0.86-0.74 0-0.7 0.68-0.81 1.5-0.81zm-0.08 0.45c-0.44 0-0.79 0.07-0.79 0.39q0.01 0.32 0.35 0.32c0.37 0 0.53-0.28 0.53-0.54v-0.17z"/>
			<path class="s0" d="m47.92 6.19v0.32c0.12-0.24 0.41-0.37 0.72-0.37 0.54 0 0.88 0.34 0.88 0.86v1.57h-0.64v-1.33c0-0.39-0.09-0.62-0.44-0.62-0.25 0-0.51 0.18-0.51 0.66v1.29h-0.64v-2.38z"/>
			<path class="s0" d="m51.7 6.69q-0.19-0.07-0.38-0.07c-0.46 0-0.69 0.34-0.69 0.77 0 0.43 0.22 0.76 0.7 0.76q0.2 0.01 0.39-0.07l0.1 0.47q-0.26 0.09-0.54 0.08c-0.85 0-1.29-0.53-1.29-1.24 0-0.71 0.48-1.25 1.28-1.25q0.3-0.01 0.54 0.08l-0.11 0.48z"/>
			<path class="s0" d="m52.73 7.57c0.04 0.41 0.37 0.58 0.78 0.58 0.18 0 0.4-0.03 0.57-0.09l0.07 0.47q-0.31 0.09-0.72 0.09c-0.85 0-1.34-0.5-1.34-1.24 0-0.74 0.45-1.25 1.19-1.25 0.69 0 1.07 0.46 1.07 1.17v0.26h-1.63zm0-0.45h1.03c0-0.33-0.18-0.55-0.48-0.55-0.3 0-0.51 0.23-0.55 0.55z"/>
			<path class="s0" d="m56.44 5.26h0.64v3.31h-0.63v-0.3c-0.18 0.25-0.46 0.36-0.73 0.36-0.65 0-1-0.55-1-1.24 0-0.69 0.37-1.24 1.02-1.24 0.27 0 0.54 0.09 0.71 0.32v-1.2zm-0.55 2.89c0.37 0 0.59-0.32 0.59-0.77 0-0.45-0.22-0.76-0.59-0.76-0.37 0-0.54 0.33-0.54 0.76 0 0.43 0.17 0.77 0.54 0.77z"/>
		</g>
		<path id="PS5_x5F_PRO_x5F_NEG" class="s0" d="m6.81 9.16q-0.01 0-0.03-0.03v-0.37q0-0.01 0.03-0.03h2.04c0.36 0 0.64-0.29 0.64-0.64v-1.84c0-0.59 0.48-1.07 1.07-1.07h2.49q0.02 0 0.03 0.03v0.37q0 0.02-0.03 0.03h-2.07c-0.36 0-0.64 0.29-0.64 0.64v1.84c0 0.59-0.48 1.07-1.07 1.07zm7.77-1.84h3.64c0.39 0 0.71 0.32 0.71 0.71 0 0.39-0.32 0.7-0.71 0.7h-4.27q-0.02 0-0.03 0.03v0.37q0 0.02 0.03 0.03h4.69c0.62 0 1.13-0.51 1.13-1.13 0-0.62-0.51-1.13-1.13-1.13h-3.56c-0.17 0-0.31-0.14-0.31-0.31v-0.95q0-0.02 0.03-0.03h4.79q0.02 0 0.03-0.03v-0.37q0-0.02-0.03-0.03h-5.64q-0.01 0-0.03 0.03v1.46c0 0.36 0.29 0.64 0.64 0.64zm-12.29-0.42c-0.59 0-1.07 0.48-1.07 1.07 0 0 0 0.85 0 1.16q0 0.03 0.03 0.03h0.79q0.02 0 0.03-0.03v-1.16c0-0.36 0.29-0.64 0.64-0.64h3.28c0.59 0 1.07-0.48 1.07-1.07 0-0.59-0.48-1.07-1.07-1.07h-4.75q-0.01 0-0.03 0.03v0.37q0 0.01 0.03 0.03h4.32c0.36 0 0.64 0.29 0.64 0.64 0 0.35-0.29 0.64-0.64 0.64 0 0-3.28 0-3.27 0zm25.89-1.22v2.97c0 0.27-0.22 0.5-0.5 0.5h-5.2c-0.27 0-0.5-0.22-0.5-0.5v-2.97c0-0.27 0.22-0.5 0.5-0.5h5.2c0.27 0 0.5 0.22 0.5 0.5zm-0.94 1.75c0-0.5-0.31-0.8-0.78-0.8-0.47 0-0.78 0.3-0.78 0.8 0 0.5 0.31 0.81 0.78 0.81 0.47 0 0.78-0.31 0.78-0.81zm-2.71-0.66c0-0.49-0.34-0.64-0.75-0.64h-0.78v2.08h0.42v-0.76h0.36c0.4 0 0.75-0.18 0.75-0.67zm-0.85-0.3h-0.29v0.63h0.31c0.21 0 0.37-0.08 0.37-0.32 0-0.24-0.16-0.32-0.39-0.32zm1.99 0.17c0 0-0.08 0-0.11 0q-0.29 0-0.4 0.24v-0.2h-0.4v1.54h0.41v-0.74c0-0.39 0.17-0.52 0.37-0.52q0.06 0 0.12 0.01l0.02-0.32zm0.76 0.3c-0.25 0-0.37 0.2-0.37 0.49 0 0.29 0.12 0.49 0.37 0.49 0.25 0 0.37-0.19 0.37-0.49 0-0.3-0.12-0.49-0.37-0.49z"/>
		<g id="DIVIDER">
			<path id="_x3C_PATH_x3E_" fill-rule="evenodd" class="s0" d="m32.07 3.2h0.16v7.94h-0.16z"/>
		</g>
	</g>
</svg>