<svg width="40" height="40" viewBox="0 0 40 40" fill="none" xmlns="http://www.w3.org/2000/svg">
<g clip-path="url(#clip0_1524_2909)">
<path fill-rule="evenodd" clip-rule="evenodd" d="M24.0972 28.022C23.2937 28.022 22.5912 27.8364 21.9919 27.4674C21.5244 27.1936 21.2122 26.8349 21.0556 26.3926C20.8888 25.9629 20.8048 24.9374 20.8048 23.3126V16.26H27.3533V11.9448H20.8048V4.99878H16.8644C16.6828 6.40701 16.3605 7.5769 15.8917 8.50732C15.423 9.42742 14.8056 10.2146 14.0384 10.87C13.2701 11.5151 12.3406 12.0182 11.2488 12.3757V16.26H14.3085V25.9102C14.3085 27.1867 14.4402 28.148 14.7035 28.792C14.9554 29.4371 15.4298 30.0639 16.1255 30.6723C16.8451 31.2693 17.6736 31.7173 18.6087 32.0152C19.5814 32.3372 20.6959 32.4976 21.9556 32.4976C23.1076 32.4976 24.146 32.3842 25.0698 32.1585C25.9812 31.9545 27.048 31.5672 28.2726 30.9932V26.6619C26.8925 27.5694 25.5011 28.022 24.0972 28.022Z" fill="#00F0FF"/>
</g>
<defs>
<clipPath id="clip0_1524_2909">
<rect width="17.0238" height="27.5" fill="white" transform="translate(11.25 5)"/>
</clipPath>
</defs>
</svg>
