<svg version="1.2" xmlns="http://www.w3.org/2000/svg" viewBox="0 0 40 32" width="40" height="32">
	<defs>
		<clipPath clipPathUnits="userSpaceOnUse" id="cp1">
			<path d="m-16 0h72v32h-72z"/>
		</clipPath>
	</defs>
	<style>
		.s0 { fill: #ffffff } 
	</style>
	<g id="Clip-Path" clip-path="url(#cp1)">
		<g>
			<path class="s0" d="m31.62 13.81c-0.1-0.62-0.6-2.52-2.85-2.52-2.56 0-3.38 2.4-3.38 4.71 0 2.32 0.82 4.72 3.38 4.72 1.83 0 2.55-1.25 2.87-2.86h5.35c0 3.47-2.9 7.15-8.08 7.15-5.73 0-8.98-3.92-8.98-9.01 0-5.41 3.52-9 8.98-9 4.85 0.03 7.54 2.51 8.01 6.81z"/>
			<path class="s0" d="m3 7.41h9.13c4.81 0 6.5 3.43 6.5 5.88 0 4.16-2.88 6.11-6.95 6.11h-3.22v5.2h-5.46zm5.46 7.89h2.1c1.42 0 2.9-0.09 2.9-1.83 0-1.56-1.24-1.66-2.58-1.66h-2.42z"/>
		</g>
	</g>
</svg>