<?xml version="1.0" encoding="UTF-8"?>
<svg xmlns="http://www.w3.org/2000/svg" version="1.1" viewBox="0 0 72 32" width="72" height="32" fill="white">
    <defs>
        <style>
            .cls-1 {
            fill: none;
            }

            .cls-2 {
            clip-path: url(#clippath);
            }
        </style>
        <clipPath id="clippath">
            <rect class="cls-1" y="0" width="72" height="32"/>
        </clipPath>
    </defs>
    <g>
        <g id="Layer_1">
            <g class="cls-2">
                <g>
                    <path d="M16,24.6l-2.5-10.6c0,1.3,0,1.3,0,5.1v5.4h-4.7V7.3h7l2.3,9.3,2.3-9.3h7v17.3h-4.7v-10.6c0,0-2.5,10.6-2.5,10.6h-4Z"/>
                    <path d="M35.2,22.2l-.8,2.4h-5.4l6.1-17.3h5.4l6.2,17.3h-5.5l-.8-2.4h-5.4ZM37.9,13.5l-1.5,5h3.1l-1.5-5Z"/>
                    <path d="M58.6,13.8c-.1-.6-.6-2.5-2.9-2.5s-3.4,2.4-3.4,4.7.8,4.7,3.4,4.7,2.6-1.2,2.9-2.9h5.4c0,3.5-2.9,7.2-8.1,7.2s-9-3.9-9-9,3.5-9,9-9c4.9,0,7.5,2.5,8,6.8h-5.3Z"/>
                </g>
            </g>
        </g>
    </g>
</svg>
