<svg width="190" height="172" viewBox="0 0 190 172" fill="none" xmlns="http://www.w3.org/2000/svg">
<g clip-path="url(#clip0_1326_18505)">
<path d="M11.57 125.712L18.86 135.532H21.76V120.852H18.78V130.502L11.56 120.852H8.59V135.532H11.57V125.712ZM83.24 120.852H70.8V123.972H75.49V135.542H78.65V123.972H83.24V120.852ZM82.34 170.752H88.51V143.042H82.34V170.752ZM50.15 125.712L57.44 135.532H60.34V120.852H57.36V130.502L50.14 120.852H47.17V135.532H50.15V125.712ZM64.08 163.142L58.21 143.042H53.29L47.45 163.072L42.12 143.042H36.09L43.93 170.752H50.59L55.76 152.502L60.89 170.752H67.58L75.46 143.042H69.43L64.08 163.142ZM20.09 153.922C16.09 153.262 13.5 152.522 13.5 150.662C13.5 148.512 16.38 147.682 20.24 147.682C23.83 147.682 27.43 149.052 28.72 149.592L30.69 144.792C29.3 144.242 24.87 142.662 19.96 142.662C13.97 142.662 7.61 145.582 7.61 150.992C7.61 155.382 10.7 157.622 18.65 158.982C24.25 159.942 27.33 160.472 27.25 162.882C27.2 164.212 26.18 166.432 19.86 166.432C14.78 166.432 11.21 164.592 9.96 163.842L7.34 168.572C8.74 169.312 13.43 171.502 19.46 171.502C28.27 171.502 32.93 168.452 32.93 162.672C32.93 159.322 31.8 155.832 20.08 153.912M36.1 120.852H32.83V135.532H36.1V120.852ZM130.75 135.532V120.852H127.77V130.502L120.55 120.852H117.58V135.532H120.56V125.712L127.85 135.532H130.75ZM105.41 132.812H96.97V129.372H104.77V126.712H96.97V123.542H105.41V120.842H93.99V135.522H105.41V132.802V132.812ZM174.11 120.352C169.8 120.352 166.29 123.872 166.29 128.192C166.29 132.512 169.8 136.032 174.11 136.032C178.42 136.032 181.93 132.512 181.93 128.192C181.93 123.872 178.42 120.352 174.11 120.352ZM174.11 132.762C171.59 132.762 169.55 130.712 169.55 128.192C169.55 125.672 171.6 123.622 174.11 123.622C176.62 123.622 178.67 125.672 178.67 128.192C178.67 130.712 176.62 132.762 174.11 132.762ZM175.11 153.962H162.17V143.042H156.44V170.752H162.17V159.702H175.11V170.752H180.84V143.042H175.11V153.962ZM95.26 148.922H104.11V170.752H110.07V148.922H118.72V143.042H95.25V148.922H95.26ZM138 148.302C141.13 148.302 144.04 149.972 145.61 152.602L150.12 148.682C147.36 144.582 142.81 142.142 137.84 142.142C129.69 142.142 123.05 148.772 123.05 156.932C123.05 165.092 129.69 171.722 137.84 171.722C142.8 171.722 147.36 169.282 150.12 165.182L145.61 161.262C144.05 163.892 141.13 165.562 138 165.562C133.15 165.562 129.21 161.692 129.21 156.932C129.21 152.172 133.15 148.302 138 148.302ZM149.24 120.852H143.17V135.532H149.24C153.4 135.532 156.79 132.242 156.79 128.192C156.79 124.142 153.4 120.852 149.24 120.852ZM149.39 132.452H146.19V123.942H149.39C151.74 123.942 153.65 125.852 153.65 128.202C153.65 130.552 151.74 132.462 149.39 132.462" fill="black"/>
<path d="M47 1.57227H25.37C11.36 1.57227 0 12.9323 0 26.9423V75.1423C0 89.1523 11.36 100.512 25.37 100.512H47C47.4 100.512 47.73 100.192 47.73 99.7823V2.29227C47.73 1.89227 47.41 1.57227 47 1.57227ZM39.74 92.5323H25.37C20.72 92.5323 16.36 90.7223 13.07 87.4423C9.78 84.1623 7.98 79.7923 7.98 75.1423V26.9423C7.98 22.2923 9.79 17.9223 13.07 14.6423C16.36 11.3623 20.72 9.55227 25.37 9.55227H39.74V92.5423V92.5323ZM24.71 21.9523C29.85 21.9523 34.01 26.1223 34.01 31.2523C34.01 36.3823 29.85 40.5523 24.71 40.5523C19.57 40.5523 15.41 36.3823 15.41 31.2523C15.41 26.1223 19.58 21.9523 24.71 21.9523ZM73.57 1.57227H58.26C57.9 1.57227 57.62 1.86227 57.62 2.22227V99.7923C57.62 100.192 57.94 100.522 58.34 100.522H73.57C87.58 100.522 98.94 89.1623 98.94 75.1523V26.9523C98.94 12.9423 87.58 1.58227 73.57 1.58227V1.57227ZM77.2 65.9923C71.67 65.9923 67.2 61.5123 67.2 55.9923C67.2 50.4723 71.68 45.9923 77.2 45.9923C82.72 45.9923 87.2 50.4723 87.2 55.9923C87.2 61.5123 82.72 65.9923 77.2 65.9923Z" fill="black"/>
<path d="M115.61 100.511V83.5014C117.37 82.0614 124.01 76.3414 131.04 70.3014C137.36 64.8614 143.67 59.4114 150.11 54.1214C154.96 50.1314 164.18 42.8114 164.47 35.6314C164.82 27.1914 158.83 21.7214 149.89 21.7214C144.56 21.7214 138.31 24.6814 134.52 27.9014C130.73 31.1214 125.87 35.2814 125.87 35.2814L111.86 20.1014C123.75 6.77141 136.54 0.0114102 149.86 0.0114102C178.26 -0.68859 199.66 30.9614 178.06 55.7714C170.22 64.4114 161.33 72.5014 152.18 79.6914H189.26V100.511H115.59H115.61Z" fill="black"/>
</g>
<defs>
<clipPath id="clip0_1326_18505">
<rect width="189.26" height="171.721" fill="white"/>
</clipPath>
</defs>
</svg>
